<?xml version="1.0" encoding="UTF-8" standalone="no"?>
<svg
   xmlns:dc="http://purl.org/dc/elements/1.1/"
   xmlns:cc="http://creativecommons.org/ns#"
   xmlns:rdf="http://www.w3.org/1999/02/22-rdf-syntax-ns#"
   xmlns:svg="http://www.w3.org/2000/svg"
   xmlns="http://www.w3.org/2000/svg"
   xmlns:sodipodi="http://sodipodi.sourceforge.net/DTD/sodipodi-0.dtd"
   xmlns:inkscape="http://www.inkscape.org/namespaces/inkscape"
   inkscape:version="1.0 (4035a4fb49, 2020-05-01)"
   height="681.71924"
   width="1121"
   sodipodi:docname="VGA.svg"
   xml:space="preserve"
   viewBox="0 0 1121 681.71924"
   y="0px"
   x="0px"
   id="Layer_1"
   version="1.1"><metadata
   id="metadata1186"><rdf:RDF><cc:Work
       rdf:about=""><dc:format>image/svg+xml</dc:format><dc:type
         rdf:resource="http://purl.org/dc/dcmitype/StillImage" /><dc:title></dc:title></cc:Work></rdf:RDF></metadata><defs
   id="defs1184"><rect
   id="rect1231"
   height="107.22499"
   width="180.36916"
   y="543.05005"
   x="415.0816" />
	
	
<rect
   x="415.0816"
   y="543.05005"
   width="180.36916"
   height="107.22499"
   id="rect1231-0" /><rect
   x="415.0816"
   y="543.05005"
   width="180.36916"
   height="107.22499"
   id="rect1246" /><rect
   id="rect1231-0-2"
   height="107.22499"
   width="180.36916"
   y="543.05005"
   x="415.0816" /><rect
   id="rect1312"
   height="107.22499"
   width="180.36916"
   y="543.05005"
   x="415.0816" /><rect
   x="415.0816"
   y="543.05005"
   width="180.36916"
   height="107.22499"
   id="rect1231-0-2-7" /><rect
   x="415.0816"
   y="543.05005"
   width="180.36916"
   height="107.22499"
   id="rect1428" /><rect
   id="rect1231-0-2-7-7"
   height="107.22499"
   width="180.36916"
   y="543.05005"
   x="415.0816" /><rect
   id="rect1466"
   height="107.22499"
   width="180.36916"
   y="543.05005"
   x="415.0816" /><rect
   x="415.0816"
   y="543.05005"
   width="180.36916"
   height="107.22499"
   id="rect1231-0-2-7-7-7" /><rect
   x="415.0816"
   y="543.05005"
   width="180.36916"
   height="107.22499"
   id="rect1504" /><rect
   id="rect1231-0-2-7-7-7-2"
   height="107.22499"
   width="180.36916"
   y="543.05005"
   x="415.0816" /><rect
   id="rect1543"
   height="107.22499"
   width="180.36916"
   y="543.05005"
   x="415.0816" /></defs><sodipodi:namedview
   inkscape:current-layer="Layer_1"
   inkscape:window-maximized="1"
   inkscape:window-y="0"
   inkscape:window-x="0"
   inkscape:cy="149.60664"
   inkscape:cx="427.84925"
   inkscape:zoom="0.70710678"
   lock-margins="false"
   fit-margin-bottom="100"
   fit-margin-right="0"
   fit-margin-left="0"
   fit-margin-top="0"
   inkscape:snap-bbox-midpoints="true"
   inkscape:snap-bbox-edge-midpoints="true"
   inkscape:bbox-nodes="true"
   inkscape:bbox-paths="true"
   inkscape:snap-bbox="true"
   showgrid="false"
   id="namedview1182"
   inkscape:window-height="1056"
   inkscape:window-width="1920"
   inkscape:pageshadow="2"
   inkscape:pageopacity="0"
   guidetolerance="10"
   gridtolerance="10"
   objecttolerance="10"
   borderopacity="1"
   bordercolor="#666666"
   pagecolor="#ffffff" />
<style
   id="style1093"
   type="text/css">
	.st0{fill:#FFFFFF;stroke:#000000;stroke-width:2;stroke-miterlimit:10;}
	.st1{fill:#0B4E9A;stroke:#000000;stroke-width:2;stroke-miterlimit:10;}
	.st2{fill:none;}
	.st3{font-family:'DejaVuSansCondensed-Bold', sans-serif; font-stretch: condensed; font-weight: bold;}
	.st4{font-size:31px;}
</style>




<g
   transform="translate(-0.5,-0.5)"
   id="g1137">
		<path
   class="st0"
   d="M 634.34,214.5 H 483.16 354 c -41.49,0 -72.92,40.33 -65.72,84.33 l 17.57,107.29 c 5.62,34.34 33.33,59.38 65.72,59.38 h 70.48 233.39 70.48 c 32.38,0 60.09,-25.04 65.72,-59.38 l 17.57,-107.29 c 7.2,-44 -24.23,-84.33 -65.72,-84.33 z"
   id="path1103" />
		<path
   class="st1"
   d="M 629.12,231.5 H 488.38 368.15 c -38.62,0 -67.88,34.87 -61.18,72.91 l 16.36,92.76 c 5.23,29.69 31.03,51.33 61.18,51.33 h 65.61 217.26 65.61 c 30.15,0 55.94,-21.64 61.18,-51.33 l 16.36,-92.76 c 6.71,-38.04 -22.55,-72.91 -61.18,-72.91 z"
   id="path1105" />
		<path
   id="circle1107"
   style="fill:#ffffff;stroke:#000000;stroke-width:2;stroke-miterlimit:10"
   d="M 417.75,271.75 A 25.25,25.25 0 0 1 392.5,297 25.25,25.25 0 0 1 367.25,271.75 25.25,25.25 0 0 1 392.5,246.5 a 25.25,25.25 0 0 1 25.25,25.25"
   class="st0" />
		<path
   id="circle1109"
   style="fill:#ffffff;stroke:#000000;stroke-width:2;stroke-miterlimit:10"
   d="M 657.56,271.75 A 25.25,25.25 0 0 1 632.31,297 25.25,25.25 0 0 1 607.06,271.75 25.25,25.25 0 0 1 632.31,246.5 25.25,25.25 0 0 1 657.56,271.75"
   class="st0" />
		<path
   id="circle1111"
   style="fill:#ffffff;stroke:#000000;stroke-width:2;stroke-miterlimit:10"
   d="M 737.5,271.75 A 25.25,25.25 0 0 1 712.25,297 25.25,25.25 0 0 1 687,271.75 25.25,25.25 0 0 1 712.25,246.5 25.25,25.25 0 0 1 737.5,271.75"
   class="st0" />
		<path
   id="circle1113"
   style="fill:#ffffff;stroke:#000000;stroke-width:2;stroke-miterlimit:10"
   d="M 577.63,271.75 A 25.25,25.25 0 0 1 552.38,297 25.25,25.25 0 0 1 527.13,271.75 25.25,25.25 0 0 1 552.38,246.5 25.25,25.25 0 0 1 577.63,271.75"
   class="st0" />
		<path
   id="circle1115"
   style="fill:#ffffff;stroke:#000000;stroke-width:2;stroke-miterlimit:10"
   d="M 497.69,271.75 A 25.25,25.25 0 0 1 472.44,297 25.25,25.25 0 0 1 447.19,271.75 25.25,25.25 0 0 1 472.44,246.5 25.25,25.25 0 0 1 497.69,271.75"
   class="st0" />
		<path
   id="circle1117"
   style="fill:#ffffff;stroke:#000000;stroke-width:2;stroke-miterlimit:10"
   d="M 417.75,410 A 25.25,25.25 0 0 1 392.5,435.25 25.25,25.25 0 0 1 367.25,410 25.25,25.25 0 0 1 392.5,384.75 25.25,25.25 0 0 1 417.75,410"
   class="st0" />
		<path
   id="circle1119"
   style="fill:#ffffff;stroke:#000000;stroke-width:2;stroke-miterlimit:10"
   d="M 657.56,410 A 25.25,25.25 0 0 1 632.31,435.25 25.25,25.25 0 0 1 607.06,410 25.25,25.25 0 0 1 632.31,384.75 25.25,25.25 0 0 1 657.56,410"
   class="st0" />
		<path
   id="circle1121"
   style="fill:#ffffff;stroke:#000000;stroke-width:2;stroke-miterlimit:10"
   d="M 737.5,410 A 25.25,25.25 0 0 1 712.25,435.25 25.25,25.25 0 0 1 687,410 25.25,25.25 0 0 1 712.25,384.75 25.25,25.25 0 0 1 737.5,410"
   class="st0" />
		<path
   id="circle1123"
   style="fill:#ffffff;stroke:#000000;stroke-width:2;stroke-miterlimit:10"
   d="M 577.63,410 A 25.25,25.25 0 0 1 552.38,435.25 25.25,25.25 0 0 1 527.13,410 25.25,25.25 0 0 1 552.38,384.75 25.25,25.25 0 0 1 577.63,410"
   class="st0" />
		<path
   id="circle1125"
   style="fill:#ffffff;stroke:#000000;stroke-width:2;stroke-miterlimit:10"
   d="M 497.69,410 A 25.25,25.25 0 0 1 472.44,435.25 25.25,25.25 0 0 1 447.19,410 25.25,25.25 0 0 1 472.44,384.75 25.25,25.25 0 0 1 497.69,410"
   class="st0" />
		<path
   id="circle1127"
   style="fill:#ffffff;stroke:#000000;stroke-width:2;stroke-miterlimit:10"
   d="m 457.63,340.88 a 25.25,25.25 0 0 1 -25.25,25.25 25.25,25.25 0 0 1 -25.25,-25.25 25.25,25.25 0 0 1 25.25,-25.25 25.25,25.25 0 0 1 25.25,25.25"
   class="st0" />
		<path
   id="circle1129"
   style="fill:#ffffff;stroke:#000000;stroke-width:2;stroke-miterlimit:10"
   d="m 697.44,340.88 a 25.25,25.25 0 0 1 -25.25,25.25 25.25,25.25 0 0 1 -25.25,-25.25 25.25,25.25 0 0 1 25.25,-25.25 25.25,25.25 0 0 1 25.25,25.25"
   class="st0" />
		<path
   id="circle1131"
   style="fill:#ffffff;stroke:#000000;stroke-width:2;stroke-miterlimit:10"
   d="m 777.38,340.88 a 25.25,25.25 0 0 1 -25.25,25.25 25.25,25.25 0 0 1 -25.25,-25.25 25.25,25.25 0 0 1 25.25,-25.25 25.25,25.25 0 0 1 25.25,25.25"
   class="st0" />
		<path
   id="circle1133"
   style="fill:#ffffff;stroke:#000000;stroke-width:2;stroke-miterlimit:10"
   d="M 617.5,340.88 A 25.25,25.25 0 0 1 592.25,366.13 25.25,25.25 0 0 1 567,340.88 25.25,25.25 0 0 1 592.25,315.63 25.25,25.25 0 0 1 617.5,340.88"
   class="st0" />
		<path
   id="circle1135"
   style="fill:#ffffff;stroke:#000000;stroke-width:2;stroke-miterlimit:10"
   d="m 537.56,340.88 a 25.25,25.25 0 0 1 -25.25,25.25 25.25,25.25 0 0 1 -25.25,-25.25 25.25,25.25 0 0 1 25.25,-25.25 25.25,25.25 0 0 1 25.25,25.25"
   class="st0" />
	</g>
<rect
   id="rect1149"
   height="547"
   width="1121"
   class="st2"
   y="0"
   x="0" />















<path
   id="path1227"
   d="m 472.51061,404.70676 v 99.44677"
   style="fill:none;stroke:#000000;stroke-width:15.1181;stroke-linecap:butt;stroke-linejoin:miter;stroke-miterlimit:4;stroke-dasharray:none;stroke-opacity:1" /><text
   transform="translate(-44.585424,-27.144885)"
   y="0"
   x="78.25985"
   style="font-style:normal;font-weight:normal;font-size:40px;line-height:0.85;font-family:sans-serif;white-space:pre;shape-inside:url(#rect1231);fill:#000000;fill-opacity:1;stroke:none;"
   id="text1229"
   xml:space="preserve"><tspan
     x="483.02661"
     y="569.21078"><tspan
       style="line-height:0.85;text-align:center;text-anchor:middle">26
</tspan></tspan><tspan
     x="451.61333"
     y="603.21078"><tspan
       style="font-size:26.6667px;line-height:0.85">(VSYNC)</tspan></tspan></text><text
   xml:space="preserve"
   id="text1229-6"
   style="font-style:normal;font-weight:normal;font-size:40px;line-height:0.85;font-family:sans-serif;white-space:pre;shape-inside:url(#rect1231-0);fill:#000000;fill-opacity:1;stroke:none;"
   x="78.25985"
   y="0"
   transform="translate(62.3571,-27.256681)"><tspan
     x="483.02661"
     y="569.21078"><tspan
       style="line-height:0.85;text-align:center;text-anchor:middle">25
</tspan></tspan><tspan
     x="450.4"
     y="603.21078"><tspan
       style="font-size:26.6667px;line-height:0.85">(HSYNC)</tspan></tspan></text><path
   style="fill:none;stroke:#000000;stroke-width:15.1181;stroke-linecap:butt;stroke-linejoin:miter;stroke-miterlimit:4;stroke-dasharray:none;stroke-opacity:1"
   d="m 552.48589,404.70676 v 99.44677"
   id="path1227-8" /><text
   transform="translate(206.27833,-430.07795)"
   y="0"
   x="78.25985"
   style="font-style:normal;font-weight:normal;font-size:40px;line-height:0.85;font-family:sans-serif;white-space:pre;shape-inside:url(#rect1231-0-2);fill:#000000;fill-opacity:1;stroke:none;"
   id="text1229-6-6"
   xml:space="preserve"><tspan
     x="483.02661"
     y="569.21078"><tspan
       style="line-height:0.85;text-align:center;text-anchor:middle">14
</tspan></tspan><tspan
     x="495.63995"
     y="603.21078"><tspan
       style="font-size:26.6667px;line-height:0.85">R</tspan></tspan></text><path
   id="path1227-8-6"
   d="m 711.49162,178.78617 v 99.44677"
   style="fill:none;stroke:#000000;stroke-width:15.1181;stroke-linecap:butt;stroke-linejoin:miter;stroke-miterlimit:4;stroke-dasharray:none;stroke-opacity:1" /><path
   style="fill:none;stroke:#000000;stroke-width:15.1181;stroke-linecap:butt;stroke-linejoin:miter;stroke-miterlimit:4;stroke-dasharray:none;stroke-opacity:1"
   d="m 632.06139,178.78617 v 99.44677"
   id="path1227-8-6-9" /><path
   style="fill:none;stroke:#000000;stroke-width:15.1181;stroke-linecap:butt;stroke-linejoin:miter;stroke-miterlimit:4;stroke-dasharray:none;stroke-opacity:1"
   d="m 552.03486,178.78617 v 99.44677"
   id="path1227-8-6-5" /><path
   id="path1227-8-6-5-0"
   d="m 392.03862,178.78617 v 99.44677"
   style="fill:none;stroke:#000000;stroke-width:15.1181;stroke-linecap:butt;stroke-linejoin:miter;stroke-miterlimit:4;stroke-dasharray:none;stroke-opacity:1" /><path
   id="path1227-8-4"
   d="m 752.22895,404.70676 v 99.44677"
   style="fill:none;stroke:#000000;stroke-width:15.1181;stroke-linecap:butt;stroke-linejoin:miter;stroke-miterlimit:4;stroke-dasharray:none;stroke-opacity:1" /><path
   id="path1227-8-8"
   d="m 752.229,338.32428 v 99.44677"
   style="fill:none;stroke:#000000;stroke-width:15.1182;stroke-linecap:butt;stroke-linejoin:miter;stroke-miterlimit:4;stroke-dasharray:none;stroke-opacity:1" /><text
   xml:space="preserve"
   id="text1229-6-6-1"
   style="font-style:normal;font-weight:normal;font-size:40px;line-height:0.85;font-family:sans-serif;white-space:pre;shape-inside:url(#rect1231-0-2-7);fill:#000000;fill-opacity:1;stroke:none;"
   x="78.25985"
   y="0"
   transform="translate(126.8481,-430.07795)"><tspan
     x="483.02661"
     y="569.21078"><tspan
       style="line-height:0.85;text-align:center;text-anchor:middle">19
</tspan></tspan><tspan
     x="494.89326"
     y="603.21078"><tspan
       style="font-size:26.6667px;line-height:0.85">G</tspan></tspan></text><text
   transform="translate(47.101591,-431.95644)"
   y="0"
   x="78.25985"
   style="font-style:normal;font-weight:normal;font-size:40px;line-height:0.85;font-family:sans-serif;white-space:pre;shape-inside:url(#rect1231-0-2-7-7);fill:#000000;fill-opacity:1;stroke:none;"
   id="text1229-6-6-1-2"
   xml:space="preserve"><tspan
     x="483.02661"
     y="569.21078"><tspan
       style="line-height:0.85;text-align:center;text-anchor:middle">27
</tspan></tspan><tspan
     x="496.37326"
     y="603.21078"><tspan
       style="font-size:26.6667px;line-height:0.85">B</tspan></tspan></text><text
   xml:space="preserve"
   id="text1229-6-6-1-2-2"
   style="font-style:normal;font-weight:normal;font-size:40px;line-height:0.85;font-family:sans-serif;white-space:pre;shape-inside:url(#rect1231-0-2-7-7-7);fill:#000000;fill-opacity:1;stroke:none;"
   x="78.25985"
   y="0"
   transform="translate(-53.152839,-399.30363)"><tspan
     x="415.08203"
     y="569.21078"><tspan
       style="font-size:26.6667px;line-height:0.85">GND</tspan></tspan></text><text
   transform="translate(307.51544,-31.507313)"
   y="0"
   x="78.25985"
   style="font-style:normal;font-weight:normal;font-size:40px;line-height:0.85;font-family:sans-serif;white-space:pre;shape-inside:url(#rect1231-0-2-7-7-7-2);fill:#000000;fill-opacity:1;stroke:none;"
   id="text1229-6-6-1-2-2-6"
   xml:space="preserve"><tspan
     x="415.08203"
     y="569.21078"><tspan
       style="font-size:26.6667px;line-height:0.85">GND</tspan></tspan></text></svg>
